<?xml version="1.0" standalone="no"?>
<!DOCTYPE svg PUBLIC "-//W3C//DTD SVG 20010904//EN"
 "http://www.w3.org/TR/2001/REC-SVG-20010904/DTD/svg10.dtd">
<svg version="1.0" xmlns="http://www.w3.org/2000/svg"
 width="800.000000pt" height="800.000000pt" viewBox="0 0 800.000000 800.000000"
 preserveAspectRatio="xMidYMid meet">
<metadata>
Created by potrace 1.11, written by Peter Selinger 2001-2013
</metadata>
<g transform="translate(0.000000,800.000000) scale(0.100000,-0.100000)"
fill="#000000" stroke="none">
<path d="M0 4000 l0 -4000 4000 0 4000 0 0 4000 0 4000 -4000 0 -4000 0 0
-4000z m3785 2191 c-22 -4 -50 -11 -62 -15 -14 -4 -23 -3 -23 3 0 12 30 18 85
18 l40 0 -40 -6z m515 -11 c0 -5 -2 -10 -4 -10 -3 0 -8 5 -11 10 -3 6 -1 10 4
10 6 0 11 -4 11 -10z m-2731 -474 c21 -19 21 -22 22 -635 l1 -616 113 230
c114 231 453 923 481 981 29 61 52 66 307 62 215 -3 230 -4 243 -23 8 -11 12
-30 10 -42 -3 -11 -85 -182 -181 -378 -96 -197 -175 -359 -175 -360 0 -2 -70
-146 -155 -321 l-156 -318 112 -250 c130 -290 154 -343 219 -486 45 -99 205
-455 326 -726 30 -67 54 -131 54 -142 0 -44 -19 -47 -269 -47 -201 0 -241 2
-261 16 -19 12 -66 113 -194 415 -93 220 -205 484 -249 587 l-80 189 -73 -139
-74 -138 0 -446 c0 -440 0 -446 -21 -465 -19 -17 -39 -19 -239 -19 -200 0
-220 2 -239 19 l-21 19 0 1507 c0 1423 1 1508 18 1522 29 26 41 27 253 25 188
-2 209 -4 228 -21z m4075 -6 c17 -20 32 -79 70 -275 27 -138 77 -394 112 -570
34 -176 86 -439 114 -585 28 -146 69 -352 91 -458 21 -107 39 -199 39 -204 0
-36 17 43 99 452 127 641 256 1291 286 1450 33 170 40 189 81 206 35 15 341
20 417 7 63 -10 66 -30 29 -191 -17 -75 -49 -220 -72 -322 -23 -102 -48 -214
-56 -250 -8 -36 -125 -560 -259 -1165 -168 -755 -251 -1108 -264 -1125 -25
-34 -48 -37 -256 -39 -190 -1 -243 7 -262 38 -7 10 -71 286 -143 613 -72 326
-167 755 -211 953 -44 198 -87 392 -95 430 -29 138 -144 653 -178 803 -43 183
-45 224 -13 247 19 13 53 15 235 13 l214 -3 22 -25z m-902 -377 c16 -15 18
-36 18 -235 0 -205 -1 -219 -20 -238 -19 -19 -33 -20 -510 -20 l-490 0 0 -300
0 -300 373 0 c306 0 377 -3 393 -14 18 -13 19 -30 22 -231 3 -184 1 -220 -13
-241 l-15 -24 -380 0 -380 0 0 -285 0 -285 323 -1 c516 -2 666 -6 683 -19 11
-10 14 -53 14 -236 0 -250 1 -248 -73 -259 -23 -3 -356 -5 -739 -3 -654 3
-698 4 -715 21 -17 17 -18 82 -15 1340 3 895 7 1326 14 1334 8 10 170 13 751
13 675 0 742 -1 759 -17z m-877 -3610 c-15 -43 -10 -61 19 -73 21 -9 21 -9 -1
-9 -40 -1 -56 56 -27 97 21 31 24 28 9 -15z m136 -56 c-13 -13 -15 1 -4 30 7
17 8 17 11 -1 2 -10 -1 -23 -7 -29z m119 28 c4 3 7 -6 6 -20 -1 -23 -2 -24
-13 -8 -7 9 -13 24 -12 32 0 11 2 12 6 3 2 -6 8 -10 13 -7z m-93 -17 c-3 -8
-6 -5 -6 6 -1 11 2 17 5 13 3 -3 4 -12 1 -19z m126 -13 c-3 -9 -8 -14 -10 -11
-3 3 -2 9 2 15 9 16 15 13 8 -4z"/>
</g>
</svg>
